#!OML:ASF H:\MichaelJackson\Top Level 1\Subject 1\Session 1\male.ASF
:FULLY-SPECIFIED
:DEGREES
1290
root -6.90057 16.9404 14.8946 -165.226 -7.30061 -177.937
lowerback 2.97702 1.90732 3.3044
upperback 0.634484 2.62159 0.089822
thorax -0.871799 1.29349 -1.85085
lowerneck -8.65389 1.11293 3.06331
upperneck 1.73151 1.22247 -2.71468
head 2.08582 0.53437 -1.34547
rclavicle 1.2424e-015 -4.57205e-015
rhumerus -41.2067 15.4824 -86.3899
rradius 58.7466
rwrist 10.4522
rhand -19.739 -23.2546
rfingers 7.12502
rthumb 6.59177 -53.132
lclavicle 1.2424e-015 -4.57205e-015
lhumerus -50.8473 -21.2641 98.187
lradius 82.9028
lwrist -0.429997
lhand 3.91681 14.2521
lfingers 7.12502
lthumb 29.3363 41.9575
rfemur -23.9573 0.914932 21.5533
rtibia 35.9939
rfoot -24.3356 -6.10588
rtoes -12.7275
lfemur -44.7183 10.9869 -19.7335
ltibia 47.8063
lfoot -10.9684 1.79733
ltoes 27.0473
1291
root -6.87625 16.9368 14.9742 -165.267 -7.62046 -177.844
lowerback 3.19089 1.9936 3.32548
upperback 0.590057 2.74593 0.139226
thorax -1.03155 1.35174 -1.8256
lowerneck -8.68972 1.16004 3.14876
upperneck 1.70928 1.27523 -2.74048
head 2.08817 0.560043 -1.36656
rclavicle -3.08116e-015 -1.98785e-016
rhumerus -41.2367 15.3804 -85.9186
rradius 58.8857
rwrist 10.057
rhand -19.0845 -23.2759
rfingers 7.12502
rthumb 7.22354 -53.1326
lclavicle -3.08116e-015 -1.98785e-016
lhumerus -51.0643 -20.9189 98.4712
lradius 81.6174
lwrist -0.676436
lhand 2.37468 13.2496
lfingers 7.12502
lthumb 27.8629 41.2033
rfemur -24.5411 0.259197 21.8177
rtibia 36.5146
rfoot -24.2477 -5.59672
rtoes -12.4106
lfemur -44.5999 10.7867 -19.1181
ltibia 49.6185
lfoot -11.1644 0.57412
ltoes 25.79
1292
root -6.85358 16.9353 15.0497 -165.297 -7.91162 -177.871
lowerback 3.2782 2.07046 3.25822
upperback 0.577079 2.84989 0.120002
thorax -1.09029 1.40288 -1.81536
lowerneck -8.55344 1.24926 3.19502
upperneck 1.55067 1.38567 -2.64296
head 2.01355 0.618297 -1.33708
rclavicle -2.40032e-014 -2.78299e-015
rhumerus -41.2126 15.2797 -85.5285
rradius 58.9577
rwrist 9.6558
rhand -18.4742 -23.2771
rfingers 7.12502
rthumb 7.81271 -53.1127
lclavicle -2.40032e-014 -2.78299e-015
lhumerus -51.3155 -20.6448 98.6616
lradius 80.4998
lwrist -1.0049
lhand 1.0969 12.6881
lfingers 7.12502
lthumb 26.6406 40.8337
rfemur -25.0909 -0.362054 21.9463
rtibia 37.0138
rfoot -24.1393 -5.22338
rtoes -12.4041
lfemur -44.3965 10.5814 -18.6332
ltibia 51.3942
lfoot -11.2978 -0.382286
ltoes 25.0009
1293
root -6.83031 16.9331 15.1241 -165.326 -8.19249 -177.807
lowerback 3.34166 2.13445 3.23582
upperback 0.572123 2.93666 0.135169
thorax -1.12805 1.44539 -1.7933
lowerneck -8.62345 1.31435 3.28472
upperneck 1.51535 1.45872 -2.64188
head 2.01818 0.65417 -1.34925
rclavicle 1.98785e-014 -9.93923e-015
rhumerus -41.0817 15.2119 -85.107
rradius 58.9687
rwrist 9.59941
rhand -17.8558 -23.2328
rfingers 7.12502
rthumb 8.40946 -53.0454
lclavicle 1.98785e-014 -9.93923e-015
lhumerus -51.4987 -20.2383 98.7211
lradius 79.3541
lwrist -1.27165
lhand 0.008435 11.3549
lfingers 7.12502
lthumb 25.5985 39.6545
rfemur -25.6173 -0.761193 22.1597
rtibia 37.4631
rfoot -23.9815 -5.00162
rtoes -12.1678
lfemur -44.1683 10.4666 -18.0664
ltibia 53.1253
lfoot -11.3552 -1.04271
ltoes 24.3206
1294
root -6.80741 16.9345 15.1953 -165.342 -8.47462 -177.782
lowerback 3.3354 2.19021 3.1668
upperback 0.58149 3.00817 0.131808
thorax -1.11444 1.48175 -1.76034
lowerneck -8.66021 1.3974 3.36188
upperneck 1.44593 1.55585 -2.61012
head 2.00566 0.702731 -1.34797
rclavicle 2.23633e-015 6.55989e-015
rhumerus -40.9639 15.1324 -84.746
rradius 58.9771
rwrist 9.56486
rhand -17.4221 -23.1868
rfingers 7.12502
rthumb 8.82807 -52.9821
lclavicle 2.23633e-015 6.55989e-015
lhumerus -51.5596 -19.8367 98.7236
lradius 78.169
lwrist -1.62065
lhand -0.47848 10.985
lfingers 7.12502
lthumb 25.132 39.3508
rfemur -26.0898 -1.0006 22.3125
rtibia 37.8404
rfoot -23.7974 -4.92144
rtoes -11.8889
lfemur -43.9031 10.499 -17.6095
ltibia 54.7607
lfoot -11.346 -1.44593
ltoes 24.0026
1295
root -6.78497 16.9369 15.2655 -165.374 -8.75473 -177.763
lowerback 3.37857 2.24083 3.11851
upperback 0.567512 3.07612 0.109764
thorax -1.15069 1.51535 -1.76082
lowerneck -8.50405 1.48268 3.50362
upperneck 1.20026 1.65375 -2.63354
head 1.90209 0.750486 -1.3752
rclavicle -1.14301e-014 4.77083e-015
rhumerus -40.8277 15.0754 -84.415
rradius 58.9538
rwrist 9.61973
rhand -16.9737 -23.2571
rfingers 7.12502
rthumb 9.26071 -53.0337
lclavicle -1.14301e-014 4.77083e-015
lhumerus -51.7439 -19.512 98.7486
lradius 77.2543
lwrist -1.8825
lhand -1.20967 12.1544
lfingers 7.12502
lthumb 24.4312 40.6165
rfemur -26.4857 -1.16196 22.4577
rtibia 38.1274
rfoot -23.5793 -4.9912
rtoes -11.7391
lfemur -43.5651 10.6377 -17.1891
ltibia 56.281
lfoot -11.2394 -1.5712
ltoes 24.6462
1296
root -6.76314 16.9403 15.3319 -165.405 -9.11254 -177.804
lowerback 3.34806 2.27192 3.03366
upperback 0.553842 3.11464 0.0672187
thorax -1.14784 1.53544 -1.75754
lowerneck -8.46288 1.57945 3.56302
upperneck 1.12814 1.77272 -2.54185
head 1.87418 0.812217 -1.35055
rclavicle 2.18166e-014 5.96354e-015
rhumerus -40.7721 14.9469 -84.0888
rradius 59.0081
rwrist 9.89716
rhand -16.4249 -23.2271
rfingers 7.12502
rthumb 9.79025 -52.9795
lclavicle 2.18166e-014 5.96354e-015
lhumerus -51.9361 -19.2486 98.7202
lradius 76.3511
lwrist -1.86024
lhand -1.45687 12.0942
lfingers 7.12502
lthumb 24.1942 40.5881
rfemur -26.7889 -1.36959 22.5555
rtibia 38.3136
rfoot -23.3664 -5.15331
rtoes -11.7451
lfemur -43.1768 10.8829 -16.9114
ltibia 57.6548
lfoot -11.0886 -1.42055
ltoes 25.1954
1297
root -6.7435 16.9472 15.3933 -165.422 -9.51072 -177.896
lowerback 3.25014 2.28227 2.88614
upperback 0.567886 3.12048 0.0525
thorax -1.08546 1.54048 -1.68576
lowerneck -8.47099 1.63624 3.73731
upperneck 1.05409 1.83362 -2.70778
head 1.85916 0.838075 -1.43227
rclavicle 2.96686e-014 -2.46493e-014
rhumerus -40.6729 14.9616 -83.7624
rradius 59.0956
rwrist 9.90214
rhand -16.2164 -23.3831
rfingers 7.12502
rthumb 9.99138 -53.126
lclavicle 2.96686e-014 -2.46493e-014
lhumerus -52.076 -18.8719 98.6421
lradius 75.4602
lwrist -1.7312
lhand -1.28849 11.7063
lfingers 7.12502
lthumb 24.3557 40.1787
rfemur -27.0196 -1.66177 22.6023
rtibia 38.3952
rfoot -23.1709 -5.29304
rtoes -11.7077
lfemur -42.7392 11.2411 -16.7301
ltibia 58.8704
lfoot -10.929 -1.09484
ltoes 26.589
1298
root -6.72395 16.9523 15.4533 -165.449 -9.96993 -177.849
lowerback 3.19402 2.2738 2.89392
upperback 0.528036 3.10945 0.055961
thorax -1.09533 1.53485 -1.6847
lowerneck -8.39856 1.7269 3.82284
upperneck 0.967264 1.94742 -2.73546
head 1.82352 0.89433 -1.45124
rclavicle -1.64991e-014 -6.16232e-015
rhumerus -40.6469 14.9874 -83.4891
rradius 59.22
rwrist 10.0749
rhand -15.9374 -23.4173
rfingers 7.12502
rthumb 10.2605 -53.1471
lclavicle -1.64991e-014 -6.16232e-015
lhumerus -52.3171 -18.6043 98.583
lradius 74.7092
lwrist -1.50251
lhand -0.90223 12.1546
lfingers 7.12502
lthumb 24.7259 40.5767
rfemur -27.2037 -1.92189 22.808
rtibia 38.3817
rfoot -22.9739 -5.4971
rtoes -11.8031
lfemur -42.3115 11.7759 -16.4685
ltibia 59.9358
lfoot -10.6629 -0.457729
ltoes 27.5358
1299
root -6.70553 16.9577 15.5104 -165.51 -10.4355 -177.783
lowerback 3.06271 2.28142 2.8841
upperback 0.527208 3.11554 0.0846705
thorax -1.02455 1.53916 -1.64404
lowerneck -8.33214 1.80013 3.91379
upperneck 0.894479 2.03834 -2.77752
head 1.79331 0.938982 -1.47696
rclavicle 7.37988e-014 7.15625e-015
rhumerus -40.5494 15.0418 -83.2016
rradius 59.3296
rwrist 10.1358
rhand -15.6348 -23.5613
rfingers 7.12502
rthumb 10.5524 -53.2764
lclavicle 7.37988e-014 7.15625e-015
lhumerus -52.5102 -18.3768 98.5641
lradius 74.002
lwrist -1.27255
lhand -0.538172 12.826
lfingers 7.12502
lthumb 25.0748 41.1998
rfemur -27.3027 -2.18574 23.016
rtibia 38.29
rfoot -22.7835 -5.70803
rtoes -12.0853
lfemur -41.8011 12.419 -16.2001
ltibia 60.8423
lfoot -10.4637 0.238578
ltoes 29.3612
1300
root -6.68863 16.9637 15.5637 -165.531 -10.9609 -177.73
lowerback 2.86685 2.28319 2.82778
upperback 0.518701 3.11084 0.142073
thorax -0.930155 1.53853 -1.54505
lowerneck -8.3205 1.88817 3.96945
upperneck 0.848448 2.15063 -2.81762
head 1.78198 0.99377 -1.49493
rclavicle -2.44008e-014 -2.10712e-014
rhumerus -40.4644 15.0783 -82.8596
rradius 59.4838
rwrist 10.3726
rhand -15.3469 -23.6898
rfingers 7.12502
rthumb 10.8301 -53.3905
lclavicle -2.44008e-014 -2.10712e-014
lhumerus -52.7491 -18.1942 98.5529
lradius 73.3847
lwrist -1.10994
lhand 0.0947977 13.2595
lfingers 7.12502
lthumb 25.6812 41.5471
rfemur -27.401 -2.52174 23.1946
rtibia 38.1494
rfoot -22.6395 -5.7986
rtoes -12.105
lfemur -41.2978 13.1277 -15.9858
ltibia 61.5763
lfoot -10.2886 1.20228
ltoes 31.3343
1301
root -6.67148 16.9659 15.6175 -165.562 -11.5221 -177.639
lowerback 2.74859 2.28823 2.83315
upperback 0.443747 3.11686 0.179756
thorax -0.942459 1.54116 -1.50634
lowerneck -8.22369 1.97174 4.15644
upperneck 0.84648 2.25426 -2.95727
head 1.77415 1.0445 -1.56938
rclavicle 2.04251e-014 1.17283e-014
rhumerus -40.4541 15.1141 -82.5733
rradius 59.6138
rwrist 10.7092
rhand -15.0047 -23.7281
rfingers 7.12502
rthumb 11.1602 -53.4113
lclavicle 2.04251e-014 1.17283e-014
lhumerus -53.0495 -18.0476 98.5635
lradius 72.7517
lwrist -1.13106
lhand 0.556207 13.7134
lfingers 7.12502
lthumb 26.123 41.9365
rfemur -27.4979 -2.98715 23.4255
rtibia 37.9905
rfoot -22.5497 -5.67464
rtoes -11.7147
lfemur -40.7761 13.9051 -15.7386
ltibia 62.1465
lfoot -10.2365 2.19167
ltoes 34.1061
1302
root -6.65703 16.9669 15.6651 -165.611 -12.1413 -177.505
lowerback 2.53737 2.28426 2.86209
upperback 0.406321 3.10678 0.260375
thorax -0.866071 1.53682 -1.43109
lowerneck -8.28674 2.05135 4.22339
upperneck 0.961296 2.35738 -3.0137
head 1.8296 1.09597 -1.59547
rclavicle 3.22031e-014 8.15017e-015
rhumerus -40.3913 15.1833 -82.2689
rradius 59.7241
rwrist 11.151
rhand -15.0722 -23.7156
rfingers 7.12502
rthumb 11.0951 -53.4023
lclavicle 3.22031e-014 8.15017e-015
lhumerus -53.2513 -17.9764 98.5962
lradius 72.0896
lwrist -1.21378
lhand 0.865818 14.085
lfingers 7.12502
lthumb 26.4194 42.2639
rfemur -27.5595 -3.61608 23.7133
rtibia 37.8298
rfoot -22.5075 -5.39432
rtoes -11.1955
lfemur -40.2162 14.7856 -15.4839
ltibia 62.5493
lfoot -10.3466 3.24405
ltoes 36.0312
